<svg width="12" height="13" viewBox="0 0 12 13" fill="none" xmlns="http://www.w3.org/2000/svg">
<path d="M4.5 10.249C4.32462 10.249 4.15228 10.2061 4 10.1246L2 9.18348C1.6905 9.01756 1.5 8.71104 1.5 8.37873V6.02685C1.5 5.69501 1.6905 5.38802 2 5.22164L7 2.87444C7.15228 2.79289 7.32462 2.75 7.5 2.75C7.67538 2.75 7.84772 2.79289 8 2.87444L10 3.81557C10.1516 3.89651 10.2777 4.01357 10.3655 4.15489C10.4533 4.29621 10.4997 4.45677 10.5 4.62031V6.9722C10.5 7.30403 10.3095 7.61102 10 7.7774L5 10.1246C4.84772 10.2061 4.67538 10.249 4.5 10.249ZM4.5 10.249V6.7341M4.5 6.7341L10.25 4.1563M4.5 6.7341L1.75 5.56237" stroke="#2B2B2B" stroke-linecap="round" stroke-linejoin="round"/>
</svg>
